<?xml version="1.0" encoding="UTF-8"?>
<svg width="700px" height="700px" viewBox="0 0 994 993" version="1.1" xmlns="http://www.w3.org/2000/svg" xmlns:xlink="http://www.w3.org/1999/xlink">
    <!-- Generator: Sketch 59.1 (86144) - https://sketch.com -->
    <title>guilloche10</title>
    <desc>Created with Sketch.</desc>
    <g id="Guilloche" stroke="none" stroke-width="1" fill="none" fill-rule="evenodd">
        <g id="Artboard" transform="translate(0.000000, -3.000000)" fill-rule="nonzero" stroke="#A6ADBA" stroke-width="4">
            <g id="guilloche10" transform="translate(0.000000, 3.000000)">
                <g id="guilloche-half">
                    <polygon id="Polygon" points="497 1.6728972 526.738136 31.0990851 539.056075 102.140187 526.738136 173.181289 497 202.607477 467.261864 173.181289 454.943925 102.140187 467.261864 31.0990851"></polygon>
                    <polygon id="Polygon" transform="translate(545.523647, 105.133023) rotate(7.000000) translate(-545.523647, -105.133023) " points="545.523647 4.66573333 575.261783 34.0919212 587.579722 105.133023 575.261783 176.174125 545.523647 205.600313 515.785512 176.174125 503.467573 105.133023 515.785512 34.0919212"></polygon>
                    <polygon id="Polygon" transform="translate(593.311726, 114.066163) rotate(14.000000) translate(-593.311726, -114.066163) " points="593.311726 13.5988734 623.049862 43.0250613 635.367801 114.066163 623.049862 185.107265 593.311726 214.533453 563.57359 185.107265 551.255651 114.066163 563.57359 43.0250613"></polygon>
                    <polygon id="Polygon" transform="translate(639.639817, 128.804190) rotate(21.000000) translate(-639.639817, -128.804190) " points="639.639817 28.3369001 669.377952 57.7630879 681.695892 128.80419 669.377952 199.845292 639.639817 229.27148 609.901681 199.845292 597.583742 128.80419 609.901681 57.7630879"></polygon>
                    <polygon id="Polygon" transform="translate(683.805633, 149.123690) rotate(28.000000) translate(-683.805633, -149.123690) " points="683.805633 48.6563999 713.543769 78.0825878 725.861708 149.12369 713.543769 220.164791 683.805633 249.590979 654.067498 220.164791 641.749559 149.12369 654.067498 78.0825878"></polygon>
                    <polygon id="Polygon" transform="translate(725.139667, 174.716640) rotate(35.000000) translate(-725.139667, -174.716640) " points="725.139667 74.24935 754.877803 103.675538 767.195742 174.71664 754.877803 245.757742 725.139667 275.183929 695.401531 245.757742 683.083592 174.71664 695.401531 103.675538"></polygon>
                    <polygon id="Polygon" transform="translate(763.015336, 205.195077) rotate(42.000000) translate(-763.015336, -205.195077) " points="763.015336 104.727787 792.753472 134.153975 805.071411 205.195077 792.753472 276.236179 763.015336 305.662367 733.2772 276.236179 720.959261 205.195077 733.2772 134.153975"></polygon>
                    <polygon id="Polygon" transform="translate(796.858483, 240.096980) rotate(49.000000) translate(-796.858483, -240.096980) " points="796.858483 139.62969 826.596619 169.055878 838.914558 240.09698 826.596619 311.138081 796.858483 340.564269 767.120348 311.138081 754.802409 240.09698 767.120348 169.055878"></polygon>
                    <polygon id="Polygon" transform="translate(826.156082, 278.893270) rotate(56.000000) translate(-826.156082, -278.893270) " points="826.156082 178.42598 855.894218 207.852168 868.212157 278.89327 855.894218 349.934372 826.156082 379.36056 796.417946 349.934372 784.100007 278.89327 796.417946 207.852168"></polygon>
                    <polygon id="Polygon" transform="translate(850.464010, 320.995836) rotate(64.000000) translate(-850.464010, -320.995836) " points="850.46401 220.528546 880.202146 249.954734 892.520085 320.995836 880.202146 392.036938 850.46401 421.463126 820.725874 392.036938 808.407935 320.995836 820.725874 249.954734"></polygon>
                    <polygon id="Polygon" transform="translate(869.413784, 365.766446) rotate(71.000000) translate(-869.413784, -365.766446) " points="869.413784 265.299156 899.151919 294.725344 911.469858 365.766446 899.151919 436.807548 869.413784 466.233736 839.675648 436.807548 827.357709 365.766446 839.675648 294.725344"></polygon>
                    <polygon id="Polygon" transform="translate(882.718144, 412.526423) rotate(78.000000) translate(-882.718144, -412.526423) " points="882.718144 312.059133 912.45628 341.485321 924.774219 412.526423 912.45628 483.567525 882.718144 512.993712 852.980009 483.567525 840.662069 412.526423 852.980009 341.485321"></polygon>
                    <polygon id="Polygon" transform="translate(890.175411, 460.566933) rotate(85.000000) translate(-890.175411, -460.566933) " points="890.175411 360.099643 919.913546 389.525831 932.231485 460.566933 919.913546 531.608035 890.175411 561.034223 860.437275 531.608035 848.119336 460.566933 860.437275 389.525831"></polygon>
                    <polygon id="Polygon" transform="translate(891.672539, 509.159731) rotate(92.000000) translate(-891.672539, -509.159731) " points="891.672539 408.692441 921.410675 438.118629 933.728614 509.159731 921.410675 580.200833 891.672539 609.627021 861.934403 580.200833 849.616464 509.159731 861.934403 438.118629"></polygon>
                    <polygon id="Polygon" transform="translate(887.186834, 557.568200) rotate(99.000000) translate(-887.186834, -557.568200) " points="887.186834 457.10091 916.924969 486.527098 929.242908 557.5682 916.924969 628.609302 887.186834 658.03549 857.448698 628.609302 845.130759 557.5682 857.448698 486.527098"></polygon>
                    <polygon id="Polygon" transform="translate(876.786294, 605.058517) rotate(106.000000) translate(-876.786294, -605.058517) " points="876.786294 504.591227 906.524429 534.017415 918.842368 605.058517 906.524429 676.099619 876.786294 705.525807 847.048158 676.099619 834.730219 605.058517 847.048158 534.017415"></polygon>
                    <polygon id="Polygon" transform="translate(860.628581, 650.910777) rotate(113.000000) translate(-860.628581, -650.910777) " points="860.628581 550.443487 890.366716 579.869675 902.684655 650.910777 890.366716 721.951879 860.628581 751.378067 830.890445 721.951879 818.572506 650.910777 830.890445 579.869675"></polygon>
                    <polygon id="Polygon" transform="translate(838.958629, 694.429907) rotate(120.000000) translate(-838.958629, -694.429907) " points="838.958629 593.962617 868.696765 623.388805 881.014704 694.429907 868.696765 765.471008 838.958629 794.897196 809.220493 765.471008 796.902554 694.429907 809.220493 623.388805"></polygon>
                    <polygon id="Polygon" transform="translate(812.104933, 734.956200) rotate(127.000000) translate(-812.104933, -734.956200) " points="812.104933 634.48891 841.843069 663.915098 854.161008 734.9562 841.843069 805.997302 812.104933 835.42349 782.366798 805.997302 770.048858 734.9562 782.366798 663.915098"></polygon>
                    <polygon id="Polygon" transform="translate(780.474568, 771.875320) rotate(134.000000) translate(-780.474568, -771.875320) " points="780.474568 671.40803 810.212703 700.834218 822.530643 771.87532 810.212703 842.916422 780.474568 872.34261 750.736432 842.916422 738.418493 771.87532 750.736432 700.834218"></polygon>
                    <polygon id="Polygon" transform="translate(744.547017, 804.627610) rotate(141.000000) translate(-744.547017, -804.627610) " points="744.547017 704.16032 774.285152 733.586508 786.603092 804.62761 774.285152 875.668712 744.547017 905.0949 714.808881 875.668712 702.490942 804.62761 714.808881 733.586508"></polygon>
                    <polygon id="Polygon" transform="translate(704.866905, 832.716579) rotate(148.000000) translate(-704.866905, -832.716579) " points="704.866905 732.24929 734.605041 761.675477 746.92298 832.716579 734.605041 903.757681 704.866905 933.183869 675.12877 903.757681 662.810831 832.716579 675.12877 761.675477"></polygon>
                    <polygon id="Polygon" transform="translate(662.035744, 855.716427) rotate(155.000000) translate(-662.035744, -855.716427) " points="662.035744 755.249138 691.773879 784.675326 704.091818 855.716427 691.773879 926.757529 662.035744 956.183717 632.297608 926.757529 619.979669 855.716427 632.297608 784.675326"></polygon>
                    <polygon id="Polygon" transform="translate(616.702808, 873.278500) rotate(162.000000) translate(-616.702808, -873.278500) " points="616.702808 772.81121 646.440944 802.237398 658.758883 873.2785 646.440944 944.319602 616.702808 973.74579 586.964673 944.319602 574.646733 873.2785 586.964673 802.237398"></polygon>
                    <polygon id="Polygon" transform="translate(569.555300, 885.136574) rotate(169.000000) translate(-569.555300, -885.136574) " points="569.5553 784.669285 599.293436 814.095473 611.611375 885.136574 599.293436 956.177676 569.5553 985.603864 539.817165 956.177676 527.499225 885.136574 539.817165 814.095473"></polygon>
                    <polygon id="Polygon" transform="translate(521.307928, 891.110894) rotate(176.000000) translate(-521.307928, -891.110894) " points="521.307928 790.643604 551.046064 820.069792 563.364003 891.110894 551.046064 962.151996 521.307928 991.578184 491.569792 962.151996 479.251853 891.110894 491.569792 820.069792"></polygon>
                    <polygon id="Polygon" transform="translate(472.692072, 891.110894) rotate(184.000000) translate(-472.692072, -891.110894) " points="472.692072 790.643604 502.430208 820.069792 514.748147 891.110894 502.430208 962.151996 472.692072 991.578184 442.953936 962.151996 430.635997 891.110894 442.953936 820.069792"></polygon>
                    <polygon id="Polygon" transform="translate(424.444700, 885.136574) rotate(191.000000) translate(-424.444700, -885.136574) " points="424.4447 784.669285 454.182835 814.095473 466.500775 885.136574 454.182835 956.177676 424.4447 985.603864 394.706564 956.177676 382.388625 885.136574 394.706564 814.095473"></polygon>
                    <polygon id="Polygon" transform="translate(377.297192, 873.278500) rotate(198.000000) translate(-377.297192, -873.278500) " points="377.297192 772.81121 407.035327 802.237398 419.353267 873.2785 407.035327 944.319602 377.297192 973.74579 347.559056 944.319602 335.241117 873.2785 347.559056 802.237398"></polygon>
                    <polygon id="Polygon" transform="translate(331.964256, 855.716427) rotate(205.000000) translate(-331.964256, -855.716427) " points="331.964256 755.249138 361.702392 784.675326 374.020331 855.716427 361.702392 926.757529 331.964256 956.183717 302.226121 926.757529 289.908182 855.716427 302.226121 784.675326"></polygon>
                    <polygon id="Polygon" transform="translate(289.133095, 832.716579) rotate(212.000000) translate(-289.133095, -832.716579) " points="289.133095 732.24929 318.87123 761.675477 331.189169 832.716579 318.87123 903.757681 289.133095 933.183869 259.394959 903.757681 247.07702 832.716579 259.394959 761.675477"></polygon>
                    <polygon id="Polygon" transform="translate(249.452983, 804.627610) rotate(219.000000) translate(-249.452983, -804.627610) " points="249.452983 704.16032 279.191119 733.586508 291.509058 804.62761 279.191119 875.668712 249.452983 905.0949 219.714848 875.668712 207.396908 804.62761 219.714848 733.586508"></polygon>
                    <polygon id="Polygon" transform="translate(213.525432, 771.875320) rotate(226.000000) translate(-213.525432, -771.875320) " points="213.525432 671.40803 243.263568 700.834218 255.581507 771.87532 243.263568 842.916422 213.525432 872.34261 183.787297 842.916422 171.469357 771.87532 183.787297 700.834218"></polygon>
                    <polygon id="Polygon" transform="translate(181.895067, 734.956200) rotate(233.000000) translate(-181.895067, -734.956200) " points="181.895067 634.48891 211.633202 663.915098 223.951142 734.9562 211.633202 805.997302 181.895067 835.42349 152.156931 805.997302 139.838992 734.9562 152.156931 663.915098"></polygon>
                    <polygon id="Polygon" transform="translate(155.041371, 694.429907) rotate(240.000000) translate(-155.041371, -694.429907) " points="155.041371 593.962617 184.779507 623.388805 197.097446 694.429907 184.779507 765.471008 155.041371 794.897196 125.303235 765.471008 112.985296 694.429907 125.303235 623.388805"></polygon>
                    <polygon id="Polygon" transform="translate(133.371419, 650.910777) rotate(247.000000) translate(-133.371419, -650.910777) " points="133.371419 550.443487 163.109555 579.869675 175.427494 650.910777 163.109555 721.951879 133.371419 751.378067 103.633284 721.951879 91.3153445 650.910777 103.633284 579.869675"></polygon>
                    <polygon id="Polygon" transform="translate(117.213706, 605.058517) rotate(254.000000) translate(-117.213706, -605.058517) " points="117.213706 504.591227 146.951842 534.017415 159.269781 605.058517 146.951842 676.099619 117.213706 705.525807 87.4755707 676.099619 75.1576316 605.058517 87.4755707 534.017415"></polygon>
                    <polygon id="Polygon" transform="translate(106.813166, 557.568200) rotate(261.000000) translate(-106.813166, -557.568200) " points="106.813166 457.10091 136.551302 486.527098 148.869241 557.5682 136.551302 628.609302 106.813166 658.03549 77.0750307 628.609302 64.7570916 557.5682 77.0750307 486.527098"></polygon>
                    <polygon id="Polygon" transform="translate(102.327461, 509.159731) rotate(268.000000) translate(-102.327461, -509.159731) " points="102.327461 408.692441 132.065597 438.118629 144.383536 509.159731 132.065597 580.200833 102.327461 609.627021 72.5893255 580.200833 60.2713864 509.159731 72.5893255 438.118629"></polygon>
                    <polygon id="Polygon" transform="translate(103.824589, 460.566933) rotate(275.000000) translate(-103.824589, -460.566933) " points="103.824589 360.099643 133.562725 389.525831 145.880664 460.566933 133.562725 531.608035 103.824589 561.034223 74.0864536 531.608035 61.7685145 460.566933 74.0864536 389.525831"></polygon>
                    <polygon id="Polygon" transform="translate(111.281856, 412.526423) rotate(282.000000) translate(-111.281856, -412.526423) " points="111.281856 312.059133 141.019991 341.485321 153.337931 412.526423 141.019991 483.567525 111.281856 512.993712 81.5437202 483.567525 69.2257811 412.526423 81.5437202 341.485321"></polygon>
                    <polygon id="Polygon" transform="translate(124.586216, 365.766446) rotate(289.000000) translate(-124.586216, -365.766446) " points="124.586216 265.299156 154.324352 294.725344 166.642291 365.766446 154.324352 436.807548 124.586216 466.233736 94.8480806 436.807548 82.5301415 365.766446 94.8480806 294.725344"></polygon>
                    <polygon id="Polygon" transform="translate(143.535990, 320.995836) rotate(296.000000) translate(-143.535990, -320.995836) " points="143.53599 220.528546 173.274126 249.954734 185.592065 320.995836 173.274126 392.036938 143.53599 421.463126 113.797854 392.036938 101.479915 320.995836 113.797854 249.954734"></polygon>
                    <polygon id="Polygon" transform="translate(167.843918, 278.893270) rotate(304.000000) translate(-167.843918, -278.893270) " points="167.843918 178.42598 197.582054 207.852168 209.899993 278.89327 197.582054 349.934372 167.843918 379.36056 138.105782 349.934372 125.787843 278.89327 138.105782 207.852168"></polygon>
                    <polygon id="Polygon" transform="translate(197.141517, 240.096980) rotate(311.000000) translate(-197.141517, -240.096980) " points="197.141517 139.62969 226.879652 169.055878 239.197591 240.09698 226.879652 311.138081 197.141517 340.564269 167.403381 311.138081 155.085442 240.09698 167.403381 169.055878"></polygon>
                    <polygon id="Polygon" transform="translate(230.984664, 205.195077) rotate(318.000000) translate(-230.984664, -205.195077) " points="230.984664 104.727787 260.7228 134.153975 273.040739 205.195077 260.7228 276.236179 230.984664 305.662367 201.246528 276.236179 188.928589 205.195077 201.246528 134.153975"></polygon>
                    <polygon id="Polygon" transform="translate(268.860333, 174.716640) rotate(325.000000) translate(-268.860333, -174.716640) " points="268.860333 74.24935 298.598469 103.675538 310.916408 174.71664 298.598469 245.757742 268.860333 275.183929 239.122197 245.757742 226.804258 174.71664 239.122197 103.675538"></polygon>
                    <polygon id="Polygon" transform="translate(310.194367, 149.123690) rotate(332.000000) translate(-310.194367, -149.123690) " points="310.194367 48.6563999 339.932502 78.0825878 352.250441 149.12369 339.932502 220.164791 310.194367 249.590979 280.456231 220.164791 268.138292 149.12369 280.456231 78.0825878"></polygon>
                    <polygon id="Polygon" transform="translate(354.360183, 128.804190) rotate(339.000000) translate(-354.360183, -128.804190) " points="354.360183 28.3369001 384.098319 57.7630879 396.416258 128.80419 384.098319 199.845292 354.360183 229.27148 324.622048 199.845292 312.304108 128.80419 324.622048 57.7630879"></polygon>
                    <polygon id="Polygon" transform="translate(400.688274, 114.066163) rotate(346.000000) translate(-400.688274, -114.066163) " points="400.688274 13.5988734 430.42641 43.0250613 442.744349 114.066163 430.42641 185.107265 400.688274 214.533453 370.950138 185.107265 358.632199 114.066163 370.950138 43.0250613"></polygon>
                    <polygon id="Polygon" transform="translate(448.476353, 105.133023) rotate(353.000000) translate(-448.476353, -105.133023) " points="448.476353 4.66573333 478.214488 34.0919212 490.532427 105.133023 478.214488 176.174125 448.476353 205.600313 418.738217 176.174125 406.420278 105.133023 418.738217 34.0919212"></polygon>
                </g>
                <g id="Group" transform="translate(240.990654, 241.990654)">
                    <circle id="Oval" cx="256.009346" cy="40.0560748" r="37.3831776"></circle>
                    <circle id="Oval" transform="translate(299.279121, 44.456181) rotate(12.000000) translate(-299.279121, -44.456181) " cx="299.279121" cy="44.4561809" r="37.3831776"></circle>
                    <circle id="Oval" transform="translate(340.777427, 57.476358) rotate(23.000000) translate(-340.777427, -57.476358) " cx="340.777427" cy="57.4763582" r="37.3831776"></circle>
                    <circle id="Oval" transform="translate(378.805317, 78.583559) rotate(35.000000) translate(-378.805317, -78.583559) " cx="378.805317" cy="78.5835594" r="37.3831776"></circle>
                    <circle id="Oval" transform="translate(411.805926, 106.913653) rotate(46.000000) translate(-411.805926, -106.913653) " cx="411.805926" cy="106.913653" r="37.3831776"></circle>
                    <circle id="Oval" transform="translate(438.428205, 141.306802) rotate(58.000000) translate(-438.428205, -141.306802) " cx="438.428205" cy="141.306802" r="37.3831776"></circle>
                    <circle id="Oval" transform="translate(457.582234, 180.354946) rotate(70.000000) translate(-457.582234, -180.354946) " cx="457.582234" cy="180.354946" r="37.3831776"></circle>
                    <circle id="Oval" transform="translate(468.483845, 222.459450) rotate(81.000000) translate(-468.483845, -222.459450) " cx="468.483845" cy="222.45945" r="37.3831776"></circle>
                    <circle id="Oval" transform="translate(470.686726, 265.896550) rotate(93.000000) translate(-470.686726, -265.896550) " cx="470.686726" cy="265.89655" r="37.3831776"></circle>
                    <circle id="Oval" transform="translate(464.100689, 308.887927) rotate(105.000000) translate(-464.100689, -308.887927) " cx="464.100689" cy="308.887927" r="37.3831776"></circle>
                    <circle id="Oval" transform="translate(448.995368, 349.673509) rotate(116.000000) translate(-448.995368, -349.673509) " cx="448.995368" cy="349.673509" r="37.3831776"></circle>
                    <circle id="Oval" transform="translate(425.989177, 386.583529) rotate(128.000000) translate(-425.989177, -386.583529) " cx="425.989177" cy="386.583529" r="37.3831776"></circle>
                    <circle id="Oval" transform="translate(396.023992, 418.106886) rotate(139.000000) translate(-396.023992, -418.106886) " cx="396.023992" cy="418.106886" r="37.3831776"></circle>
                    <circle id="Oval" transform="translate(360.326590, 442.953011) rotate(151.000000) translate(-360.326590, -442.953011) " cx="360.32659" cy="442.953011" r="37.3831776"></circle>
                    <circle id="Oval" transform="translate(320.358428, 460.104700) rotate(163.000000) translate(-320.358428, -460.104700) " cx="320.358428" cy="460.1047" r="37.3831776"></circle>
                    <circle id="Oval" transform="translate(277.755808, 468.859761) rotate(174.000000) translate(-277.755808, -468.859761) " cx="277.755808" cy="468.859761" r="37.3831776"></circle>
                    <circle id="Oval" transform="translate(234.262884, 468.859761) rotate(186.000000) translate(-234.262884, -468.859761) " cx="234.262884" cy="468.859761" r="37.3831776"></circle>
                    <circle id="Oval" transform="translate(191.660263, 460.104700) rotate(197.000000) translate(-191.660263, -460.104700) " cx="191.660263" cy="460.1047" r="37.3831776"></circle>
                    <circle id="Oval" transform="translate(151.692102, 442.953011) rotate(209.000000) translate(-151.692102, -442.953011) " cx="151.692102" cy="442.953011" r="37.3831776"></circle>
                    <circle id="Oval" transform="translate(115.994700, 418.106886) rotate(221.000000) translate(-115.994700, -418.106886) " cx="115.9947" cy="418.106886" r="37.3831776"></circle>
                    <circle id="Oval" transform="translate(86.029514, 386.583529) rotate(232.000000) translate(-86.029514, -386.583529) " cx="86.0295145" cy="386.583529" r="37.3831776"></circle>
                    <circle id="Oval" transform="translate(63.023323, 349.673509) rotate(244.000000) translate(-63.023323, -349.673509) " cx="63.0233233" cy="349.673509" r="37.3831776"></circle>
                    <circle id="Oval" transform="translate(47.918002, 308.887927) rotate(255.000000) translate(-47.918002, -308.887927) " cx="47.9180025" cy="308.887927" r="37.3831776"></circle>
                    <circle id="Oval" transform="translate(41.331966, 265.896550) rotate(267.000000) translate(-41.331966, -265.896550) " cx="41.3319657" cy="265.89655" r="37.3831776"></circle>
                    <circle id="Oval" transform="translate(43.534846, 222.459450) rotate(279.000000) translate(-43.534846, -222.459450) " cx="43.5348462" cy="222.45945" r="37.3831776"></circle>
                    <circle id="Oval" transform="translate(54.436458, 180.354946) rotate(290.000000) translate(-54.436458, -180.354946) " cx="54.4364576" cy="180.354946" r="37.3831776"></circle>
                    <circle id="Oval" transform="translate(73.590487, 141.306802) rotate(302.000000) translate(-73.590487, -141.306802) " cx="73.5904867" cy="141.306802" r="37.3831776"></circle>
                    <circle id="Oval" transform="translate(100.212765, 106.913653) rotate(314.000000) translate(-100.212765, -106.913653) " cx="100.212765" cy="106.913653" r="37.3831776"></circle>
                    <circle id="Oval" transform="translate(133.213374, 78.583559) rotate(325.000000) translate(-133.213374, -78.583559) " cx="133.213374" cy="78.5835594" r="37.3831776"></circle>
                    <circle id="Oval" transform="translate(171.241265, 57.476358) rotate(337.000000) translate(-171.241265, -57.476358) " cx="171.241265" cy="57.4763582" r="37.3831776"></circle>
                    <circle id="Oval" transform="translate(212.739570, 44.456181) rotate(348.000000) translate(-212.739570, -44.456181) " cx="212.73957" cy="44.4561809" r="37.3831776"></circle>
                </g>
            </g>
        </g>
    </g>
</svg>