<?xml version="1.0" encoding="UTF-8"?>
<svg width="18px" height="16px" viewBox="0 0 18 16" version="1.1" xmlns="http://www.w3.org/2000/svg" xmlns:xlink="http://www.w3.org/1999/xlink">
    <!-- Generator: Sketch 52.2 (67145) - http://www.bohemiancoding.com/sketch -->
    <title>sketch-symbol</title>
    <desc>Created with Sketch.</desc>
    <g id="Without-mockups" stroke="none" stroke-width="1" fill="none" fill-rule="evenodd">
        <g id="Front" transform="translate(-47.000000, -653.000000)" fill-rule="nonzero">
            <g id="Tools&amp;Techniques" transform="translate(47.000000, 625.000000)">
                <g id="sketch-symbol" transform="translate(0.000000, 26.000000)">
                    <rect id="Rectangle" x="0" y="0" width="18" height="19"></rect>
                    <g transform="translate(0.000000, 2.000000)">
                        <polygon id="Shape" fill="#FDB300" points="3.9016043 0.526785716 8.94117649 0 13.9807487 0.526785716 17.8823529 5.70535714 8.94117649 16 0 5.70535714"></polygon>
                        <g id="Group" transform="translate(0.000000, 5.647059)">
                            <polygon id="Shape" fill="#EA6C00" points="3.61432308 0 8.92315796 10.350319 0 0"></polygon>
                            <polygon id="Shape" fill="#EA6C00" transform="translate(13.384713, 5.175160) scale(-1, 1) translate(-13.384713, -5.175160) " points="12.5374569 0 17.8462918 10.350319 8.92313381 0"></polygon>
                            <polygon id="Shape" fill="#FDAD00" points="3.61432308 0 14.2319928 0 8.92315796 10.350319"></polygon>
                        </g>
                        <g id="Group">
                            <polygon id="Shape" fill="#FDD231" points="8.92315796 0 3.8937235 0.520907828 3.61432308 5.64176748"></polygon>
                            <polygon id="Shape" fill="#FDD231" transform="translate(11.577548, 2.820884) scale(-1, 1) translate(-11.577548, -2.820884) " points="14.2319654 0 9.20253096 0.520907828 8.92313054 5.64176748"></polygon>
                            <polygon id="Shape" fill="#FDAD00" transform="translate(15.899430, 3.081338) scale(-1, 1) translate(-15.899430, -3.081338) " points="13.9525456 5.64176748 17.8463145 0.520907828 17.5668687 5.64176748"></polygon>
                            <polygon id="Shape" fill="#FDAD00" points="0 5.64176748 3.8937235 0.520907828 3.61432308 5.64176748"></polygon>
                            <polygon id="Shape" fill="#FEEEB7" points="8.92315796 0 3.61432308 5.64176748 14.2319928 5.64176748"></polygon>
                        </g>
                    </g>
                </g>
            </g>
        </g>
    </g>
</svg>